<svg class="w-6 h-6" width="24" height="24" viewBox="0 0 24 24" fill="none" xmlns="http://www.w3.org/2000/svg"><path d="M21.293 6.29295C21.6835 5.90243 22.3165 5.90243 22.707 6.29295C23.0975 6.68348 23.0975 7.31649 22.707 7.70702L14.207 16.207C13.8165 16.5975 13.1835 16.5975 12.793 16.207L8.49999 11.914L2.70702 17.707C2.31649 18.0975 1.68348 18.0975 1.29295 17.707C0.90243 17.3165 0.90243 16.6835 1.29295 16.293L7.79295 9.79295L7.86913 9.72459C8.2619 9.40424 8.8409 9.42684 9.20702 9.79295L13.5 14.0859L21.293 6.29295Z" fill="#686583" style="fill-opacity:1;"/><path d="M21 13V8H16C15.4477 8 15 7.55228 15 7C15 6.44772 15.4477 6 16 6H22L22.1025 6.00488C22.6067 6.05621 23 6.48232 23 7V13C23 13.5523 22.5523 14 22 14C21.4477 14 21 13.5523 21 13Z" fill="#686583" style="fill-opacity:1;"/></svg>