<svg class="w-6 h-6" width="24" height="24" viewBox="0 0 24 24" fill="none" xmlns="http://www.w3.org/2000/svg"><path d="M1.00348 6.99475C1.00353 6.60711 1.11606 6.22772 1.3277 5.90295C1.53745 5.58123 1.83572 5.32645 2.1861 5.16956L10.7554 1.27014L10.9029 1.20764C11.2518 1.07053 11.6237 0.99969 11.9996 0.999634C12.4291 0.999634 12.8539 1.09195 13.2447 1.27014L21.8345 5.1803C22.1849 5.33718 22.4822 5.59098 22.692 5.91272C22.9037 6.2375 23.0161 6.61682 23.0162 7.00452C23.0162 7.39238 22.9038 7.77237 22.692 8.09729C22.482 8.41928 22.1833 8.67286 21.8326 8.82971L21.8336 8.83069L13.2545 12.7291L13.2554 12.7301C12.9133 12.8861 12.545 12.9757 12.1705 12.9957L12.0103 13.0006C11.6343 13.0006 11.2617 12.9298 10.9127 12.7926L10.7652 12.7301L2.18512 8.81995C1.83533 8.66301 1.53718 8.40883 1.3277 8.08752C1.11587 7.76261 1.00348 7.38262 1.00348 6.99475ZM3.0152 6.99963L11.5943 10.9098L11.6949 10.9489C11.7964 10.9826 11.9029 11.0006 12.0103 11.0006L12.1168 10.9948C12.2232 10.9833 12.3276 10.9544 12.4254 10.9098L21.0064 7.0094L21.0162 7.00452L21.0054 7.00061L12.4156 3.09045L12.4146 3.08948C12.2845 3.03019 12.1426 2.99963 11.9996 2.99963C11.8925 2.99968 11.7863 3.01684 11.6851 3.05042L11.5855 3.08948L11.5845 3.09045L3.00348 6.99475L3.0152 6.99963Z" fill="#686583" style="fill-opacity:1;"/><path d="M21.9922 11C22.5098 10.996 22.9389 11.386 22.9941 11.8896L23 11.9922L22.9961 12.1367C22.9743 12.4742 22.867 12.8019 22.6836 13.0879C22.4741 13.4144 22.1741 13.6729 21.8203 13.832L13.2441 17.7305L13.2422 17.7314C12.8535 17.9074 12.4315 17.998 12.0049 17.998C11.5782 17.998 11.1563 17.9074 10.7676 17.7314L10.7666 17.7305L2.16602 13.8203L2.16016 13.8174C1.813 13.6567 1.51909 13.3997 1.31348 13.0771C1.10795 12.7546 0.99906 12.3795 1.00001 11.9971L1.00587 11.8955C1.05825 11.3913 1.48511 10.9987 2.00294 11C2.55484 11.0016 3.00011 11.4501 2.99903 12.002L11.5918 15.9092H11.5928C11.7223 15.9678 11.8628 15.998 12.0049 15.998C12.1467 15.998 12.2868 15.9675 12.416 15.9092L20.9961 12.0098L21 12.0078L21.0039 11.9053C21.0513 11.4008 21.4745 11.0041 21.9922 11Z" fill="#686583" style="fill-opacity:1;"/><path d="M21.9922 16C22.5098 15.996 22.9389 16.386 22.9941 16.8896L23 16.9922L22.9961 17.1367C22.9743 17.4742 22.867 17.8019 22.6836 18.0879C22.4741 18.4144 22.1741 18.6729 21.8203 18.832L13.2441 22.7305L13.2422 22.7314C12.8535 22.9074 12.4315 22.998 12.0049 22.998C11.5782 22.998 11.1563 22.9074 10.7676 22.7314L10.7666 22.7305L2.16602 18.8203L2.16016 18.8174C1.813 18.6567 1.51909 18.3997 1.31348 18.0771C1.10795 17.7546 0.99906 17.3795 1.00001 16.9971L1.00587 16.8955C1.05825 16.3913 1.48511 15.9987 2.00294 16C2.55484 16.0016 3.00011 16.4501 2.99903 17.002L11.5918 20.9092H11.5928C11.7223 20.9678 11.8628 20.998 12.0049 20.998C12.1467 20.998 12.2868 20.9675 12.416 20.9092L20.9961 17.0098L21 17.0078L21.0039 16.9053C21.0513 16.4008 21.4745 16.0041 21.9922 16Z" fill="#686583" style="fill-opacity:1;"/></svg>