<svg class="w-6 h-6" width="24" height="24" viewBox="0 0 24 24" fill="none" xmlns="http://www.w3.org/2000/svg"><path d="M5 15V3C5 2.44772 5.44772 2 6 2C6.55228 2 7 2.44772 7 3V15C7 15.5523 6.55228 16 6 16C5.44772 16 5 15.5523 5 15Z" fill="#686583" style="fill-opacity:1;"/><path d="M20 6C20 4.89543 19.1046 4 18 4C16.8954 4 16 4.89543 16 6C16 7.10457 16.8954 8 18 8C19.1046 8 20 7.10457 20 6ZM22 6C22 8.20914 20.2091 10 18 10C15.7909 10 14 8.20914 14 6C14 3.79086 15.7909 2 18 2C20.2091 2 22 3.79086 22 6Z" fill="#686583" style="fill-opacity:1;"/><path d="M8 18C8 16.8954 7.10457 16 6 16C4.89543 16 4 16.8954 4 18C4 19.1046 4.89543 20 6 20C7.10457 20 8 19.1046 8 18ZM10 18C10 20.2091 8.20914 22 6 22C3.79086 22 2 20.2091 2 18C2 15.7909 3.79086 14 6 14C8.20914 14 10 15.7909 10 18Z" fill="#686583" style="fill-opacity:1;"/><path d="M17 9C17 8.44772 17.4477 8 18 8C18.5523 8 19 8.44772 19 9C19 11.6522 17.9467 14.1959 16.0713 16.0713C14.1959 17.9467 11.6522 19 9 19C8.44772 19 8 18.5523 8 18C8 17.4477 8.44772 17 9 17C11.1217 17 13.1569 16.1575 14.6572 14.6572C16.1575 13.1569 17 11.1217 17 9Z" fill="#686583" style="fill-opacity:1;"/></svg>