<svg class="w-6 h-6" width="24" height="24" viewBox="0 0 24 24" fill="none" xmlns="http://www.w3.org/2000/svg"><path d="M7 6V2C7 1.44772 7.44772 1 8 1C8.55228 1 9 1.44772 9 2V6C9 6.55228 8.55228 7 8 7C7.44772 7 7 6.55228 7 6Z" fill="#686583" style="fill-opacity:1;"/><path d="M11 6V2C11 1.44772 11.4477 1 12 1C12.5523 1 13 1.44772 13 2V6C13 6.55228 12.5523 7 12 7C11.4477 7 11 6.55228 11 6Z" fill="#686583" style="fill-opacity:1;"/><path d="M15 6V2C15 1.44772 15.4477 1 16 1C16.5523 1 17 1.44772 17 2V6C17 6.55228 16.5523 7 16 7C15.4477 7 15 6.55228 15 6Z" fill="#686583" style="fill-opacity:1;"/><path d="M19 8V6C19 5.73478 18.8946 5.48051 18.707 5.29297C18.5429 5.12883 18.3276 5.02757 18.0986 5.00488L18 5H16C15.4477 5 15 4.55228 15 4C15 3.44772 15.4477 3 16 3H18L18.2969 3.01465C18.9835 3.08291 19.6289 3.38671 20.1211 3.87891C20.6837 4.44152 21 5.20435 21 6V8C21 8.55228 20.5523 9 20 9C19.4477 9 19 8.55228 19 8Z" fill="#686583" style="fill-opacity:1;"/><path d="M19 14V12C19 11.4477 19.4477 11 20 11C20.5523 11 21 11.4477 21 12V14C21 14.5523 20.5523 15 20 15C19.4477 15 19 14.5523 19 14Z" fill="#686583" style="fill-opacity:1;"/><path d="M19 20V18C19 17.4477 19.4477 17 20 17C20.5523 17 21 17.4477 21 18V20C21 20.7957 20.6837 21.5585 20.1211 22.1211C19.5585 22.6837 18.7957 23 18 23H17C16.4477 23 16 22.5523 16 22C16 21.4477 16.4477 21 17 21H18C18.2652 21 18.5195 20.8946 18.707 20.707C18.8946 20.5195 19 20.2652 19 20Z" fill="#686583" style="fill-opacity:1;"/><path d="M13 21C13.5523 21 14 21.4477 14 22C14 22.5523 13.5523 23 13 23H11C10.4477 23 10 22.5523 10 22C10 21.4477 10.4477 21 11 21H13Z" fill="#686583" style="fill-opacity:1;"/><path d="M3 20V18C3 17.4477 3.44772 17 4 17C4.55228 17 5 17.4477 5 18V20L5.00488 20.0986C5.02757 20.3276 5.12883 20.5429 5.29297 20.707C5.48051 20.8946 5.73478 21 6 21H7C7.55228 21 8 21.4477 8 22C8 22.5523 7.55228 23 7 23H6C5.20435 23 4.44152 22.6837 3.87891 22.1211C3.38671 21.6289 3.08291 20.9835 3.01465 20.2969L3 20Z" fill="#686583" style="fill-opacity:1;"/><path d="M3 14V12C3 11.4477 3.44772 11 4 11C4.55228 11 5 11.4477 5 12V14C5 14.5523 4.55228 15 4 15C3.44772 15 3 14.5523 3 14Z" fill="#686583" style="fill-opacity:1;"/><path d="M3 8V6C3 5.20435 3.3163 4.44152 3.87891 3.87891C4.44152 3.3163 5.20435 3 6 3H8C8.55228 3 9 3.44772 9 4C9 4.55228 8.55228 5 8 5H6C5.73478 5 5.48051 5.10543 5.29297 5.29297C5.10543 5.48051 5 5.73478 5 6V8C5 8.55228 4.55228 9 4 9C3.44772 9 3 8.55228 3 8Z" fill="#686583" style="fill-opacity:1;"/><path d="M14 9C14.5523 9 15 9.44772 15 10C15 10.5523 14.5523 11 14 11H8C7.44772 11 7 10.5523 7 10C7 9.44772 7.44772 9 8 9H14Z" fill="#686583" style="fill-opacity:1;"/><path d="M16 13C16.5523 13 17 13.4477 17 14C17 14.5523 16.5523 15 16 15H8C7.44772 15 7 14.5523 7 14C7 13.4477 7.44772 13 8 13H16Z" fill="#686583" style="fill-opacity:1;"/><path d="M13 17C13.5523 17 14 17.4477 14 18C14 18.5523 13.5523 19 13 19H8C7.44772 19 7 18.5523 7 18C7 17.4477 7.44772 17 8 17H13Z" fill="#686583" style="fill-opacity:1;"/></svg>